<?xml version="1.0" encoding="UTF-8" standalone="no"?>
<svg
   xmlns:dc="http://purl.org/dc/elements/1.1/"
   xmlns:cc="http://creativecommons.org/ns#"
   xmlns:rdf="http://www.w3.org/1999/02/22-rdf-syntax-ns#"
   xmlns:svg="http://www.w3.org/2000/svg"
   xmlns="http://www.w3.org/2000/svg"
   xmlns:xlink="http://www.w3.org/1999/xlink"
   xmlns:sodipodi="http://sodipodi.sourceforge.net/DTD/sodipodi-0.dtd"
   xmlns:inkscape="http://www.inkscape.org/namespaces/inkscape"
   inkscape:version="1.0 (4035a4fb49, 2020-05-01)"
   sodipodi:docname="icons8-music (1).svg"
   id="svg66"
   version="1.1"
   height="64px"
   width="64px"
   viewBox="0 0 64 64">
  <metadata
     id="metadata72">
    <rdf:RDF>
      <cc:Work
         rdf:about="">
        <dc:format>image/svg+xml</dc:format>
        <dc:type
           rdf:resource="http://purl.org/dc/dcmitype/StillImage" />
      </cc:Work>
    </rdf:RDF>
  </metadata>
  <defs
     id="defs70">
    <linearGradient
       id="linearGradient950"
       inkscape:collect="always">
      <stop
         id="stop946"
         offset="0"
         style="stop-color:#e924a3;stop-opacity:1;" />
      <stop
         id="stop948"
         offset="1"
         style="stop-color:#6335b3;stop-opacity:1" />
    </linearGradient>
    <linearGradient
       id="linearGradient944"
       inkscape:collect="always">
      <stop
         id="stop940"
         offset="0"
         style="stop-color:#d426d9;stop-opacity:1" />
      <stop
         id="stop942"
         offset="1"
         style="stop-color:#6335b3;stop-opacity:1" />
    </linearGradient>
    <linearGradient
       inkscape:collect="always"
       id="linearGradient938">
      <stop
         style="stop-color:#e924a3;stop-opacity:1"
         offset="0"
         id="stop934" />
      <stop
         style="stop-color:#6335b3;stop-opacity:1"
         offset="1"
         id="stop936" />
    </linearGradient>
    <radialGradient
       id="radialGradient932"
       cx="31"
       cy="32"
       r="31.504"
       gradientUnits="userSpaceOnUse"
       spreadMethod="reflect">
      <stop
         style="stop-color:#ff007e;stop-opacity:1"
         offset="0"
         stop-color="#afeeff"
         id="stop924" />
      <stop
         offset="0.45227754"
         stop-color="#bbf1ff"
         id="stop926" />
      <stop
         offset="0.45227754"
         stop-color="#d7f8ff"
         id="stop928" />
      <stop
         style="stop-color:#00dbff;stop-opacity:1"
         offset="1"
         stop-color="#e1faff"
         id="stop930" />
    </radialGradient>
    <linearGradient
       id="linearGradient918"
       inkscape:collect="always">
      <stop
         id="stop914"
         offset="0"
         style="stop-color:#d74d42;stop-opacity:1" />
      <stop
         id="stop916"
         offset="1"
         style="stop-color:#6335b3;stop-opacity:1" />
    </linearGradient>
    <linearGradient
       spreadMethod="pad"
       gradientUnits="userSpaceOnUse"
       y2="53.527054"
       x2="7.4944229"
       y1="36.872784"
       x1="22.851301"
       id="linearGradient920"
       xlink:href="#linearGradient944"
       inkscape:collect="always" />
    <linearGradient
       spreadMethod="reflect"
       y2="21"
       x2="37"
       y1="46.988846"
       x1="28.799257"
       gradientUnits="userSpaceOnUse"
       id="linearGradient922"
       xlink:href="#linearGradient938"
       inkscape:collect="always" />
    <linearGradient
       gradientTransform="translate(-12,6.4999995)"
       inkscape:collect="always"
       xlink:href="#linearGradient950"
       id="linearGradient952-8"
       x1="55.168232"
       y1="32.046513"
       x2="63.672935"
       y2="40.794659"
       gradientUnits="userSpaceOnUse" />
    <linearGradient
       gradientTransform="translate(-47,-12)"
       inkscape:collect="always"
       xlink:href="#linearGradient950"
       id="linearGradient952-4"
       x1="55.168232"
       y1="32.046513"
       x2="63.672935"
       y2="40.794659"
       gradientUnits="userSpaceOnUse" />
  </defs>
  <sodipodi:namedview
     inkscape:current-layer="svg66"
     inkscape:window-maximized="0"
     inkscape:window-y="40"
     inkscape:window-x="0"
     inkscape:cy="32"
     inkscape:cx="66.037972"
     inkscape:zoom="2.9720582"
     showgrid="false"
     id="namedview68"
     inkscape:window-height="480"
     inkscape:window-width="1198"
     inkscape:pageshadow="2"
     inkscape:pageopacity="0"
     guidetolerance="10"
     gridtolerance="10"
     objecttolerance="10"
     borderopacity="1"
     bordercolor="#666666"
     pagecolor="#ffffff" />
  <radialGradient
     xlink:href="#linearGradient918"
     spreadMethod="reflect"
     gradientUnits="userSpaceOnUse"
     r="26"
     cy="35.917"
     cx="36.833"
     id="4ovAGnAu2s9yg4Q5rGLmQa">
    <stop
       id="stop2"
       stop-color="#afeeff"
       offset="0" />
    <stop
       id="stop4"
       stop-color="#bbf1ff"
       offset=".193" />
    <stop
       id="stop6"
       stop-color="#d7f8ff"
       offset=".703" />
    <stop
       id="stop8"
       stop-color="#e1faff"
       offset="1" />
  </radialGradient>
  <radialGradient
     spreadMethod="reflect"
     gradientUnits="userSpaceOnUse"
     r="28.77"
     cy="29.917"
     cx="81.417"
     id="4ovAGnAu2s9yg4Q5rGLmQb">
    <stop
       id="stop13"
       stop-color="#afeeff"
       offset="0" />
    <stop
       id="stop15"
       stop-color="#bbf1ff"
       offset=".193" />
    <stop
       id="stop17"
       stop-color="#d7f8ff"
       offset=".703" />
    <stop
       id="stop19"
       stop-color="#e1faff"
       offset="1" />
  </radialGradient>
  <radialGradient
     fy="32"
     fx="31"
     gradientTransform="matrix(0.98905782,-0.21613682,0.18248218,0.83505175,-5.5002219,11.978585)"
     spreadMethod="reflect"
     gradientUnits="userSpaceOnUse"
     r="31.504"
     cy="32"
     cx="31"
     id="4ovAGnAu2s9yg4Q5rGLmQc">
    <stop
       id="stop24"
       stop-color="#afeeff"
       offset="0" />
    <stop
       id="stop26"
       stop-color="#bbf1ff"
       offset=".193" />
    <stop
       id="stop28"
       stop-color="#d7f8ff"
       offset=".703" />
    <stop
       style="stop-color:#9cfff7;stop-opacity:1"
       id="stop30"
       stop-color="#e1faff"
       offset="1" />
  </radialGradient>
  <path
     style="fill:url(#4ovAGnAu2s9yg4Q5rGLmQc)"
     id="path33"
     d="M62,20.5L62,20.5c0-2.485-2.015-4.5-4.5-4.5H44c-2.209,0-4-1.791-4-4v0c0-2.209,1.791-4,4-4 h2c2.209,0,4-1.791,4-4v0c0-2.209-1.791-4-4-4L22,0c-2.209,0-4,1.791-4,4v0c0,2.209,1.791,4,4,4h2c1.657,0,3,1.343,3,3v0 c0,1.657-1.343,3-3,3H10.5C8.567,14,7,15.567,7,17.5v0c0,1.933,1.567,3.5,3.5,3.5H13c1.657,0,3,1.343,3,3v0c0,1.657-1.343,3-3,3H5 c-2.761,0-5,2.239-5,5v0c0,2.761,2.239,5,5,5h4.5c1.933,0,3.5,1.567,3.5,3.5v0c0,1.933-1.567,3.5-3.5,3.5H6c-2.209,0-4,1.791-4,4v0 c0,2.209,1.791,4,4,4h6.5c1.381,0,2.5,1.119,2.5,2.5v0c0,1.381-1.119,2.5-2.5,2.5h0C10.567,57,9,58.567,9,60.5v0 c0,1.933,1.567,3.5,3.5,3.5h35c1.933,0,3.5-1.567,3.5-3.5v0c0-1.933-1.567-3.5-3.5-3.5H42c-1.105,0-2-0.895-2-2v0 c0-1.105,0.895-2,2-2h12c2.209,0,4-1.791,4-4v0c0-2.209-1.791-4-4-4h-8.5c-1.381,0-2.5-1.119-2.5-2.5v0c0-1.381,1.119-2.5,2.5-2.5 H49c2.209,0,4-1.791,4-4v0c0-2.209-1.791-4-4-4h-1.5c-1.933,0-3.5-1.567-3.5-3.5v0c0-1.933,1.567-3.5,3.5-3.5h10 C59.985,25,62,22.985,62,20.5z"
     fill="url(#4ovAGnAu2s9yg4Q5rGLmQc)" />
  <radialGradient
     xlink:href="#linearGradient918"
     spreadMethod="reflect"
     gradientUnits="userSpaceOnUse"
     r="27.938"
     cy="35.417"
     cx="35.917"
     id="4ovAGnAu2s9yg4Q5rGLmQd">
    <stop
       id="stop35"
       stop-color="#afeeff"
       offset="0" />
    <stop
       id="stop37"
       stop-color="#bbf1ff"
       offset=".193" />
    <stop
       id="stop39"
       stop-color="#d7f8ff"
       offset=".703" />
    <stop
       id="stop41"
       stop-color="#e1faff"
       offset="1" />
  </radialGradient>
  <g
     id="g64">
    <linearGradient
       xlink:href="#linearGradient918"
       spreadMethod="reflect"
       gradientUnits="userSpaceOnUse"
       y2="21"
       y1="46.988846"
       x2="37"
       x1="28.799257"
       id="4ovAGnAu2s9yg4Q5rGLmQe">
      <stop
         style="stop-color:#42c6d7;stop-opacity:1"
         id="stop46"
         stop-color="#42d778"
         offset="0" />
      <stop
         id="stop48"
         stop-color="#34b171"
         offset=".996" />
      <stop
         style="stop-color:#ffffff;stop-opacity:1"
         id="stop50"
         stop-color="#34b171"
         offset="1" />
    </linearGradient>
    <path
       style="fill-opacity:1;fill:url(#linearGradient922)"
       id="path53"
       d="M44,8h-7h-2c-2.209,0-4,1.791-4,4v9v14.21C29.499,34.442,27.802,34,26,34 c-6.075,0-11,4.925-11,11s4.925,11,11,11s11-4.925,11-11V21h12c2.209,0,4-1.791,4-4C53,12.029,48.971,8,44,8z"
       fill="url(#4ovAGnAu2s9yg4Q5rGLmQe)" />
    <linearGradient
       spreadMethod="reflect"
       gradientUnits="userSpaceOnUse"
       y2="55.924"
       y1="34"
       x2="23.5"
       x1="23.5"
       id="4ovAGnAu2s9yg4Q5rGLmQf">
      <stop
         id="stop55"
         stop-color="#42d778"
         offset="0" />
      <stop
         id="stop57"
         stop-color="#3dca76"
         offset=".428" />
      <stop
         id="stop59"
         stop-color="#34b171"
         offset="1" />
    </linearGradient>
    <path
       style="mix-blend-mode:normal;fill:url(#linearGradient920);fill-opacity:1"
       id="path62"
       d="m 15,45 c 0,5.652 4.265,10.304 9.751,10.924 C 26.601,55.572 28,53.952 28,52 28,49.791 26.209,48 24,48 H 22.5 C 20.567,48 19,46.433 19,44.5 19,42.567 20.567,41 22.5,41 h 6 c 1.933,0 3.5,-1.567 3.5,-3.5 0,-0.952 -0.383,-1.813 -1,-2.444 v 0.155 C 29.499,34.442 27.802,34 26,34 19.925,34 15,38.925 15,45 Z"
       fill="url(#4ovAGnAu2s9yg4Q5rGLmQf)" />
  </g>
  <path
     fill="url(#4ovAGnAu2s9yg4Q5rGLmQd)"
     d="m 47,46.5 v 0 c -2.209,0 -4,-1.791 -4,-4 v 0 c 0,-2.209 1.791,-4 4,-4 v 0 c 2.209,0 4,1.791 4,4 v 0 c 0,2.209 -1.791,4 -4,4 z"
     id="path44-4"
     style="fill:url(#linearGradient952-8);fill-opacity:1" />
  <path
     fill="url(#4ovAGnAu2s9yg4Q5rGLmQd)"
     d="m 12,28 v 0 C 9.791,28 8,26.209 8,24 v 0 c 0,-2.209 1.791,-4 4,-4 v 0 c 2.209,0 4,1.791 4,4 v 0 c 0,2.209 -1.791,4 -4,4 z"
     id="path44-1"
     style="fill:url(#linearGradient952-4);fill-opacity:1" />
</svg>
