<?xml version="1.0" encoding="UTF-8" standalone="no"?>
<svg
   xmlns:dc="http://purl.org/dc/elements/1.1/"
   xmlns:cc="http://creativecommons.org/ns#"
   xmlns:rdf="http://www.w3.org/1999/02/22-rdf-syntax-ns#"
   xmlns:svg="http://www.w3.org/2000/svg"
   xmlns="http://www.w3.org/2000/svg"
   xmlns:xlink="http://www.w3.org/1999/xlink"
   xmlns:sodipodi="http://sodipodi.sourceforge.net/DTD/sodipodi-0.dtd"
   xmlns:inkscape="http://www.inkscape.org/namespaces/inkscape"
   viewBox="0 0 64 64"
   width="64px"
   height="64px"
   version="1.1"
   id="svg66"
   sodipodi:docname="logoimage - Copy.svg"
   inkscape:version="1.0 (4035a4fb49, 2020-05-01)">
  <metadata
     id="metadata72">
    <rdf:RDF>
      <cc:Work
         rdf:about="">
        <dc:format>image/svg+xml</dc:format>
        <dc:type
           rdf:resource="http://purl.org/dc/dcmitype/StillImage" />
        <dc:title />
      </cc:Work>
    </rdf:RDF>
  </metadata>
  <defs
     id="defs70">
    <radialGradient
       spreadMethod="reflect"
       gradientUnits="userSpaceOnUse"
       r="31.504"
       cy="32"
       cx="31"
       id="radialGradient932">
      <stop
         id="stop924"
         stop-color="#afeeff"
         offset="0"
         style="stop-color:#ff007e;stop-opacity:1" />
      <stop
         id="stop926"
         stop-color="#bbf1ff"
         offset="0.45227754" />
      <stop
         id="stop928"
         stop-color="#d7f8ff"
         offset="0.45227754" />
      <stop
         id="stop930"
         stop-color="#e1faff"
         offset="1"
         style="stop-color:#00dbff;stop-opacity:1" />
    </radialGradient>
    <linearGradient
       inkscape:collect="always"
       id="linearGradient918">
      <stop
         style="stop-color:#d74d42;stop-opacity:1"
         offset="0"
         id="stop914" />
      <stop
         style="stop-color:#6335b3;stop-opacity:1"
         offset="1"
         id="stop916" />
    </linearGradient>
  </defs>
  <sodipodi:namedview
     inkscape:document-rotation="0"
     pagecolor="#ffffff"
     bordercolor="#666666"
     borderopacity="1"
     objecttolerance="10"
     gridtolerance="10"
     guidetolerance="10"
     inkscape:pageopacity="0"
     inkscape:pageshadow="2"
     inkscape:window-width="1198"
     inkscape:window-height="510"
     id="namedview68"
     showgrid="false"
     inkscape:zoom="5.9441164"
     inkscape:cx="66.037972"
     inkscape:cy="38.583383"
     inkscape:window-x="0"
     inkscape:window-y="40"
     inkscape:window-maximized="0"
     inkscape:current-layer="svg66" />
  <radialGradient
     id="4ovAGnAu2s9yg4Q5rGLmQa"
     cx="36.833"
     cy="35.917"
     r="26"
     gradientUnits="userSpaceOnUse"
     spreadMethod="reflect"
     xlink:href="#linearGradient918">
    <stop
       offset="0"
       stop-color="#afeeff"
       id="stop2" />
    <stop
       offset=".193"
       stop-color="#bbf1ff"
       id="stop4" />
    <stop
       offset=".703"
       stop-color="#d7f8ff"
       id="stop6" />
    <stop
       offset="1"
       stop-color="#e1faff"
       id="stop8" />
  </radialGradient>
  <radialGradient
     id="4ovAGnAu2s9yg4Q5rGLmQb"
     cx="81.417"
     cy="29.917"
     r="28.77"
     gradientUnits="userSpaceOnUse"
     spreadMethod="reflect">
    <stop
       offset="0"
       stop-color="#afeeff"
       id="stop13" />
    <stop
       offset=".193"
       stop-color="#bbf1ff"
       id="stop15" />
    <stop
       offset=".703"
       stop-color="#d7f8ff"
       id="stop17" />
    <stop
       offset="1"
       stop-color="#e1faff"
       id="stop19" />
  </radialGradient>
  <radialGradient
     id="4ovAGnAu2s9yg4Q5rGLmQc"
     cx="31"
     cy="32"
     r="31.504"
     gradientUnits="userSpaceOnUse"
     spreadMethod="reflect"
     gradientTransform="matrix(0.98905782,-0.21613682,0.18248218,0.83505175,-5.5002219,11.978585)"
     fx="31"
     fy="32">
    <stop
       offset="0"
       stop-color="#afeeff"
       id="stop24" />
    <stop
       offset=".193"
       stop-color="#bbf1ff"
       id="stop26" />
    <stop
       offset=".703"
       stop-color="#d7f8ff"
       id="stop28" />
    <stop
       offset="1"
       stop-color="#e1faff"
       id="stop30"
       style="stop-color:#9cfff7;stop-opacity:1" />
  </radialGradient>
  <radialGradient
     id="4ovAGnAu2s9yg4Q5rGLmQd"
     cx="35.917"
     cy="35.417"
     r="27.938"
     gradientUnits="userSpaceOnUse"
     spreadMethod="reflect"
     xlink:href="#linearGradient918">
    <stop
       offset="0"
       stop-color="#afeeff"
       id="stop35" />
    <stop
       offset=".193"
       stop-color="#bbf1ff"
       id="stop37" />
    <stop
       offset=".703"
       stop-color="#d7f8ff"
       id="stop39" />
    <stop
       offset="1"
       stop-color="#e1faff"
       id="stop41" />
  </radialGradient>
  <g
     id="g64">
    <linearGradient
       id="4ovAGnAu2s9yg4Q5rGLmQe"
       x1="28.799257"
       x2="37"
       y1="46.988846"
       y2="21"
       gradientUnits="userSpaceOnUse"
       spreadMethod="reflect">
      <stop
         offset="0"
         stop-color="#42d778"
         id="stop46"
         style="stop-color:#42c6d7;stop-opacity:1" />
      <stop
         offset=".996"
         stop-color="#34b171"
         id="stop48" />
      <stop
         offset="1"
         stop-color="#34b171"
         id="stop50"
         style="stop-color:#ffffff;stop-opacity:1" />
    </linearGradient>
    <path
       fill="url(#4ovAGnAu2s9yg4Q5rGLmQe)"
       d="M44,8h-7h-2c-2.209,0-4,1.791-4,4v9v14.21C29.499,34.442,27.802,34,26,34 c-6.075,0-11,4.925-11,11s4.925,11,11,11s11-4.925,11-11V21h12c2.209,0,4-1.791,4-4C53,12.029,48.971,8,44,8z"
       id="path53"
       style="fill-opacity:1;fill:#ed143d" />
    <linearGradient
       id="4ovAGnAu2s9yg4Q5rGLmQf"
       x1="23.5"
       x2="23.5"
       y1="34"
       y2="55.924"
       gradientUnits="userSpaceOnUse"
       spreadMethod="reflect">
      <stop
         offset="0"
         stop-color="#42d778"
         id="stop55" />
      <stop
         offset=".428"
         stop-color="#3dca76"
         id="stop57" />
      <stop
         offset="1"
         stop-color="#34b171"
         id="stop59" />
    </linearGradient>
    <path
       fill="url(#4ovAGnAu2s9yg4Q5rGLmQf)"
       d="m 15,45 c 0,5.652 4.265,10.304 9.751,10.924 C 26.601,55.572 28,53.952 28,52 28,49.791 26.209,48 24,48 H 22.5 C 20.567,48 19,46.433 19,44.5 19,42.567 20.567,41 22.5,41 h 6 c 1.933,0 3.5,-1.567 3.5,-3.5 0,-0.952 -0.383,-1.813 -1,-2.444 v 0.155 C 29.499,34.442 27.802,34 26,34 19.925,34 15,38.925 15,45 Z"
       id="path62"
       style="mix-blend-mode:normal;fill:#000000;fill-opacity:1" />
  </g>
  <path
     style="fill:#000000;fill-opacity:1"
     id="path44-4"
     d="m 44.981197,46.5 v 0 c -2.209,0 -4,-1.791 -4,-4 v 0 c 0,-2.209 1.791,-4 4,-4 v 0 c 2.209,0 4,1.791 4,4 v 0 c 0,2.209 -1.791,4 -4,4 z"
     fill="url(#4ovAGnAu2s9yg4Q5rGLmQd)" />
  <path
     inkscape:transform-center-y="1.6823358"
     inkscape:transform-center-x="8.075212"
     style="fill:#000000;fill-opacity:1"
     id="path44-1"
     d="m 22.430482,21.943591 v 0 c -2.209,0 -4,-1.791 -4,-4 v 0 c 0,-2.209 1.791,-4 4,-4 v 0 c 2.209,0 4,1.791 4,4 v 0 c 0,2.209 -1.791,4 -4,4 z"
     fill="url(#4ovAGnAu2s9yg4Q5rGLmQd)" />
</svg>
