<svg width="503" height="497" viewBox="0 0 503 497" fill="none" xmlns="http://www.w3.org/2000/svg">
<path d="M320.124 411.849C290.015 436.015 254.106 423.865 239.915 414.77C241.895 415.873 239.193 412.617 212.547 390.769C185.901 368.921 173.599 376.613 170.779 383.189C165.493 384.217 146.575 380.707 113.189 358.445C71.4565 330.616 75.5073 301.831 56.302 270.19C40.9378 244.877 45.8868 220.192 50.2819 211.014C55.5107 195.746 72.0909 160.313 96.5815 140.72C121.072 121.126 146.523 133.909 156.188 142.75C164.208 150.271 186.222 166.459 210.117 171.044C234.013 175.63 255.19 162.217 262.792 154.938C270.07 144.695 295.556 120.494 339.279 105.636C393.933 87.0638 405.316 158.25 424.82 188.509C444.324 218.767 420.004 230.874 418.399 244.995C417.115 256.293 398.863 270.675 389.897 276.454C384.275 281.268 371.029 294.803 363.021 310.434C355.012 326.066 357.483 351.679 359.719 362.531C359.066 368.901 350.232 387.682 320.124 411.849Z" fill="url(#paint0_linear)" stroke="#F5F5F5"/>
<defs>
<linearGradient id="paint0_linear" x1="40.3933" y1="132.917" x2="426.125" y2="373.266" gradientUnits="userSpaceOnUse">
<stop stop-color="#FFAC2F"/>
<stop offset="1" stop-color="#F45641" stop-opacity="0.67"/>
</linearGradient>
</defs>
</svg>
