<svg width="400" height="400" viewBox="0 0 400 400" fill="none" xmlns="http://www.w3.org/2000/svg">
<g clip-path="url(#clip0)">
<path d="M347.624 112.711C367.398 131.456 364.34 180.829 360.34 203.172L342.303 224.589C331.48 237.438 339.322 247.791 344.596 251.361C345.856 263.317 348.305 291.354 348.014 307.843C347.65 328.456 309.684 365.773 304.128 375.475C298.572 385.177 274.818 397.857 259.48 392.783C244.142 387.71 236.333 362.829 224.257 346.121C212.18 329.413 197.084 327.158 165.24 319.95C133.396 312.741 137.179 323.772 106.382 312.216C75.5853 300.66 75.264 288.623 56.6657 270.344C38.0674 252.066 34.928 240.27 23.6979 208.586C14.7138 183.238 27.6889 122.607 35.2995 95.4602C41.8625 80.9407 59.5139 48.3915 77.615 34.3505C100.241 16.7992 96.2556 19.9794 127.054 6.69601C151.693 -3.93068 188.85 23.8769 204.348 39.109C211.661 52.6766 231.383 79.659 251.77 79.0484C272.157 78.4378 290.888 82.7949 297.705 85.0498C306.105 86.4594 327.85 93.9649 347.624 112.711Z" fill="url(#paint0_linear)"/>
</g>
<defs>
<linearGradient id="paint0_linear" x1="352.405" y1="25.934" x2="32.4047" y2="366.934" gradientUnits="userSpaceOnUse">
<stop stop-color="#FFAC2F"/>
<stop offset="0.998234" stop-color="#F45641" stop-opacity="0.78"/>
</linearGradient>
<clipPath id="clip0">
<rect width="400" height="400" fill="white"/>
</clipPath>
</defs>
</svg>
